<svg width="92" height="92" viewBox="0 0 92 92" fill="none" xmlns="http://www.w3.org/2000/svg">
    <path d="M44.2012 17.0343C42.0878 17.232 40.3444 17.607 38.6567 18.2304C37.8762 18.5142 36.6092 19.1325 35.8692 19.5836C34.2069 20.6073 32.5699 22.1278 31.4296 23.7242C29.7064 26.1316 28.6066 29.0964 28.0846 32.7607C28.0238 33.1712 27.9883 33.526 28.0035 33.5513C28.0187 33.5766 28.2417 33.7236 28.4901 33.8807L28.9512 34.1645L32.357 34.57C34.2322 34.793 35.8287 34.9805 35.9148 34.9906L36.0618 35.0008L36.2037 34.2406C37.045 29.6539 38.829 26.8462 41.8547 25.3257C43.2079 24.6517 44.6573 24.3324 46.416 24.3324C48.874 24.3324 50.9722 25.047 52.7663 26.4965C53.633 27.2009 54.5757 28.2754 55.1433 29.2181C56.3495 31.2098 56.6739 33.8148 55.9795 35.9384C55.7819 36.5465 55.2852 37.4943 54.8899 38.0163C54.0486 39.1364 52.7663 40.4439 50.7391 42.2482C47.7236 44.9394 46.3552 46.3686 45.2858 47.9498C43.218 51.0008 42.3868 54.3458 42.5135 59.1149L42.5439 60.3667L46.046 60.3566L49.5481 60.3414L49.5582 59.8092C49.5886 58.2786 49.7457 56.2159 49.9079 55.2732C50.1968 53.5704 50.8658 52.0499 51.8997 50.7626C52.3761 50.1646 54.1854 48.3958 55.7819 46.9615C60.4141 42.7955 62.4312 40.3122 63.5259 37.4233C64.6561 34.4534 64.717 30.9108 63.6881 27.7888C62.9279 25.493 61.4936 23.3238 59.5525 21.55C56.7955 19.0261 53.5215 17.6222 49.1933 17.1103C48.3723 17.009 44.9969 16.9633 44.2012 17.0343Z"
          fill="black"/>
    <path d="M42.2297 65.1815C42.1284 65.6782 42.1233 65.7947 42.1233 69.8441V74H46.2285H50.3336V69.8036C50.3286 66.0532 50.3184 65.5667 50.2424 65.1561L50.1563 64.7L46.2487 64.6848L42.3412 64.6747L42.2297 65.1815Z"
          fill="black"/>
    <circle cx="46" cy="46" r="44" stroke="black" stroke-width="3"/>
</svg>
